# xmcd
#
# Track frame offsets:
# 150
# 13928
# 34642
#
# Disc length: 1019 seconds
#
# Revision: 0
# Processed by: cddbd v1.4PL0 Copyright (c) Steve Scherf et al.
# Submitted via: Audion 3.0.2 (http://www.panic.com/audion/)
#
DISCID=1b03f903
DTITLE=Donald Thomas - Trust me
DYEAR=1900
DGENRE=
TTITLE0=Trust me
TTITLE1=Strip me
TTITLE2=Look of Love
EXTD=
EXTT0=
EXTT1=
EXTT2=
PLAYORDER=
